<svg xmlns="http://www.w3.org/2000/svg" version="1.1" xmlns:xlink="http://www.w3.org/1999/xlink" xmlns:svgjs="http://svgjs.dev/svgjs" width="1000" height="1000"><style>
    #light-icon {
      display: inline;
    }
    #dark-icon {
      display: none;
    }

    @media (prefers-color-scheme: dark) {
      #light-icon {
        display: none;
      }
      #dark-icon {
        display: inline;
      }
    }
  </style><g id="light-icon"><svg xmlns="http://www.w3.org/2000/svg" version="1.1" xmlns:xlink="http://www.w3.org/1999/xlink" xmlns:svgjs="http://svgjs.dev/svgjs" width="1000" height="1000"><g clip-path="url(#SvgjsClipPath1186)"><rect width="1000" height="1000" fill="#ffffff"></rect><g transform="matrix(33.333333333333336,0,0,33.333333333333336,100,100)"><svg xmlns="http://www.w3.org/2000/svg" version="1.1" xmlns:xlink="http://www.w3.org/1999/xlink" xmlns:svgjs="http://svgjs.dev/svgjs" width="24" height="24"><svg viewBox="0 0 24 24" version="1.1" id="svg1" sodipodi:docname="icn.svg" inkscape:version="1.3.2 (091e20e, 2023-11-25)" xmlns:inkscape="http://www.inkscape.org/namespaces/inkscape" xmlns:sodipodi="http://sodipodi.sourceforge.net/DTD/sodipodi-0.dtd" xmlns="http://www.w3.org/2000/svg" xmlns:svg="http://www.w3.org/2000/svg">
  <defs id="defs1"><clipPath id="SvgjsClipPath1186"><rect width="1000" height="1000" x="0" y="0" rx="500" ry="500"></rect></clipPath></defs>
  <sodipodi:namedview id="namedview1" pagecolor="#ffffff" bordercolor="#000000" borderopacity="0.25" inkscape:showpageshadow="2" inkscape:pageopacity="0.0" inkscape:pagecheckerboard="0" inkscape:deskcolor="#d1d1d1" inkscape:zoom="45.254834" inkscape:cx="21.688291" inkscape:cy="-1.789864" inkscape:window-width="1280" inkscape:window-height="642" inkscape:window-x="70" inkscape:window-y="302" inkscape:window-maximized="0" inkscape:current-layer="svg1"></sodipodi:namedview>
  <path d="M2.3,20.28L11.9,10.68L10.5,9.26L9.78,9.97C9.39,10.36 8.76,10.36 8.37,9.97L7.66,9.26C7.27,8.87 7.27,8.24 7.66,7.85L13.32,2.19C13.71,1.8 14.34,1.8 14.73,2.19L15.44,2.9C15.83,3.29 15.83,3.92 15.44,4.31L14.73,5L16.15,6.43C16.54,6.04 17.17,6.04 17.56,6.43C17.95,6.82 17.95,7.46 17.56,7.85L18.97,9.26L19.68,8.55C20.07,8.16 20.71,8.16 21.1,8.55L21.8,9.26C22.19,9.65 22.19,10.29 21.8,10.68L16.15,16.33C15.76,16.72 15.12,16.72 14.73,16.33L14.03,15.63C13.63,15.24 13.63,14.6 14.03,14.21L14.73,13.5L13.32,12.09L3.71,21.7C3.32,22.09 2.69,22.09 2.3,21.7C1.91,21.31 1.91,20.67 2.3,20.28M20,19A2,2 0 0,1 22,21V22H12V21A2,2 0 0,1 14,19H20Z" id="path1" style="fill:#000000;fill-opacity:1"></path>
</svg></svg></g></g></svg></g><g id="dark-icon"><svg xmlns="http://www.w3.org/2000/svg" version="1.1" xmlns:xlink="http://www.w3.org/1999/xlink" xmlns:svgjs="http://svgjs.dev/svgjs" width="1000" height="1000"><g clip-path="url(#SvgjsClipPath1187)"><rect width="1000" height="1000" fill="#121212"></rect><g transform="matrix(33.333333333333336,0,0,33.333333333333336,100,100)"><svg xmlns="http://www.w3.org/2000/svg" version="1.1" xmlns:xlink="http://www.w3.org/1999/xlink" xmlns:svgjs="http://svgjs.dev/svgjs" width="24" height="24"><svg viewBox="0 0 24 24" version="1.1" id="svg1" sodipodi:docname="icon-dark.svg" inkscape:version="1.3.2 (091e20e, 2023-11-25)" xmlns:inkscape="http://www.inkscape.org/namespaces/inkscape" xmlns:sodipodi="http://sodipodi.sourceforge.net/DTD/sodipodi-0.dtd" xmlns="http://www.w3.org/2000/svg" xmlns:svg="http://www.w3.org/2000/svg">
  <defs id="defs1"><clipPath id="SvgjsClipPath1187"><rect width="1000" height="1000" x="0" y="0" rx="500" ry="500"></rect></clipPath></defs>
  <sodipodi:namedview id="namedview1" pagecolor="#ffffff" bordercolor="#000000" borderopacity="0.25" inkscape:showpageshadow="2" inkscape:pageopacity="0.0" inkscape:pagecheckerboard="0" inkscape:deskcolor="#d1d1d1" inkscape:zoom="45.254834" inkscape:cx="21.688291" inkscape:cy="-1.789864" inkscape:window-width="1280" inkscape:window-height="642" inkscape:window-x="70" inkscape:window-y="302" inkscape:window-maximized="0" inkscape:current-layer="svg1"></sodipodi:namedview>
  <path d="M2.3,20.28L11.9,10.68L10.5,9.26L9.78,9.97C9.39,10.36 8.76,10.36 8.37,9.97L7.66,9.26C7.27,8.87 7.27,8.24 7.66,7.85L13.32,2.19C13.71,1.8 14.34,1.8 14.73,2.19L15.44,2.9C15.83,3.29 15.83,3.92 15.44,4.31L14.73,5L16.15,6.43C16.54,6.04 17.17,6.04 17.56,6.43C17.95,6.82 17.95,7.46 17.56,7.85L18.97,9.26L19.68,8.55C20.07,8.16 20.71,8.16 21.1,8.55L21.8,9.26C22.19,9.65 22.19,10.29 21.8,10.68L16.15,16.33C15.76,16.72 15.12,16.72 14.73,16.33L14.03,15.63C13.63,15.24 13.63,14.6 14.03,14.21L14.73,13.5L13.32,12.09L3.71,21.7C3.32,22.09 2.69,22.09 2.3,21.7C1.91,21.31 1.91,20.67 2.3,20.28M20,19A2,2 0 0,1 22,21V22H12V21A2,2 0 0,1 14,19H20Z" id="path1" style="fill:#ffffff;fill-opacity:1"></path>
</svg></svg></g></g></svg></g></svg>